<svg xmlns="http://www.w3.org/2000/svg" viewBox="0 0 570.62 127.09"><defs><style>.cls-1{fill:#f25ea3;}.cls-2{fill:#f26d3d;}.cls-3{fill:#5271ff;}.cls-4,.cls-5{isolation:isolate;}.cls-5{font-size:114.29px;fill:#241c1c;font-family:Canaro-Medium, Canaro;font-weight:500;}.cls-6{letter-spacing:0em;}</style></defs><g id="Capa_2" data-name="Capa 2"><g id="svg4"><path id="path4" class="cls-1" d="M43.94,67.9c-1.82-2.42-5.29-1.9-7,.61-12.32,18.22-10.44,37.7-5.45,52.4A68,68,0,0,1,0,63.79,66.41,66.41,0,0,1,1,52.1C26.94,35.34,43.61,66.91,43.94,67.9Z"/><g id="g2"><path id="path2" class="cls-2" d="M93.17,67.91c1.82-2.42,5.28-1.9,7,.62,12.37,18.21,10.43,37.69,5.46,52.38A68,68,0,0,0,136,52.08c-25.84-16.72-42.46,14.84-42.8,15.83Z"/><path id="path3" class="cls-3" d="M136,52.11c-25.25-16.76-41.47,14.81-41.79,15.8h0L71.75,99.13a4,4,0,0,1-5.57.91,3.93,3.93,0,0,1-.91-.91L42.81,67.91h0c-.33-1-16.56-32.61-41.8-15.8A68.44,68.44,0,0,1,24,11.79h0c15.19,0,34.83,28.47,41.88,39.52a3.19,3.19,0,0,0,4.39,1,3.38,3.38,0,0,0,1-1c7-11.05,26.7-39.52,41.88-39.52h0A68.36,68.36,0,0,1,136,52.11Z"/></g><g id="text1" class="cls-4"><text class="cls-5" transform="translate(152.42 96.01)"><tspan class="cls-6">m</tspan><tspan x="105.26" y="0">ar</tspan><tspan class="cls-6" x="221.27" y="0">bi</tspan><tspan x="320.59" y="0">d </tspan></text></g></g></g></svg>